<?xml version="1.0" encoding="UTF-8" standalone="no"?><svg xmlns="http://www.w3.org/2000/svg" xmlns:xlink="http://www.w3.org/1999/xlink" contentScriptType="application/ecmascript" contentStyleType="text/css" height="244px" preserveAspectRatio="none" style="width:619px;height:244px;" version="1.1" viewBox="0 0 619 244" width="619px" zoomAndPan="magnify"><defs><filter height="300%" id="fiah3jaygwzla" width="300%" x="-1" y="-1"><feGaussianBlur result="blurOut" stdDeviation="2.0"/><feColorMatrix in="blurOut" result="blurOut2" type="matrix" values="0 0 0 0 0 0 0 0 0 0 0 0 0 0 0 0 0 0 .4 0"/><feOffset dx="4.0" dy="4.0" in="blurOut2" result="blurOut3"/><feBlend in="SourceGraphic" in2="blurOut3" mode="normal"/></filter></defs><g><rect fill="#F8F8F8" filter="url(#fiah3jaygwzla)" height="36.2969" rx="12.5" ry="12.5" style="stroke: #383838; stroke-width: 1.5;" width="49" x="353" y="104.4453"/><text fill="#000000" font-family="sans-serif" font-size="14" lengthAdjust="spacingAndGlyphs" textLength="29" x="363" y="127.4404">VCS</text><rect fill="#F8F8F8" filter="url(#fiah3jaygwzla)" height="36.2969" rx="12.5" ry="12.5" style="stroke: #383838; stroke-width: 1.5;" width="146" x="452" y="20"/><text fill="#000000" font-family="sans-serif" font-size="14" lengthAdjust="spacingAndGlyphs" textLength="126" x="462" y="42.9951">History of change</text><path d="M402,122.5938 L412,122.5938 C427,122.5938 427,38.1484 442,38.1484 L452,38.1484 " fill="none" style="stroke: #383838; stroke-width: 1.0;"/><rect fill="#F8F8F8" filter="url(#fiah3jaygwzla)" height="36.2969" rx="12.5" ry="12.5" style="stroke: #383838; stroke-width: 1.5;" width="148" x="452" y="76.2969"/><text fill="#000000" font-family="sans-serif" font-size="14" lengthAdjust="spacingAndGlyphs" textLength="128" x="462" y="99.292">Version threading</text><path d="M402,122.5938 L412,122.5938 C427,122.5938 427,94.4453 442,94.4453 L452,94.4453 " fill="none" style="stroke: #383838; stroke-width: 1.0;"/><rect fill="#F8F8F8" filter="url(#fiah3jaygwzla)" height="36.2969" rx="12.5" ry="12.5" style="stroke: #383838; stroke-width: 1.5;" width="119" x="452" y="132.5938"/><text fill="#000000" font-family="sans-serif" font-size="14" lengthAdjust="spacingAndGlyphs" textLength="99" x="462" y="155.5889">Issue tracking</text><path d="M402,122.5938 L412,122.5938 C427,122.5938 427,150.7422 442,150.7422 L452,150.7422 " fill="none" style="stroke: #383838; stroke-width: 1.0;"/><rect fill="#F8F8F8" filter="url(#fiah3jaygwzla)" height="36.2969" rx="12.5" ry="12.5" style="stroke: #383838; stroke-width: 1.5;" width="110" x="452" y="188.8906"/><text fill="#000000" font-family="sans-serif" font-size="14" lengthAdjust="spacingAndGlyphs" textLength="90" x="462" y="211.8857">Deployment</text><path d="M402,122.5938 L412,122.5938 C427,122.5938 427,207.0391 442,207.0391 L452,207.0391 " fill="none" style="stroke: #383838; stroke-width: 1.0;"/><rect fill="#F8F8F8" filter="url(#fiah3jaygwzla)" height="36.2969" rx="12.5" ry="12.5" style="stroke: #383838; stroke-width: 1.5;" width="178" x="125" y="104.4453"/><text fill="#000000" font-family="sans-serif" font-size="14" lengthAdjust="spacingAndGlyphs" textLength="158" x="135" y="127.4404">Content Management</text><rect fill="#F8F8F8" filter="url(#fiah3jaygwzla)" height="36.2969" rx="12.5" ry="12.5" style="stroke: #383838; stroke-width: 1.5;" width="52" x="23" y="76.2969"/><text fill="#000000" font-family="sans-serif" font-size="14" lengthAdjust="spacingAndGlyphs" textLength="32" x="33" y="99.292">Flow</text><path d="M125,122.5938 L115,122.5938 C100,122.5938 100,94.4453 85,94.4453 L75,94.4453 " fill="none" style="stroke: #383838; stroke-width: 1.0;"/><rect fill="#F8F8F8" filter="url(#fiah3jaygwzla)" height="36.2969" rx="12.5" ry="12.5" style="stroke: #383838; stroke-width: 1.5;" width="65" x="10" y="132.5938"/><text fill="#000000" font-family="sans-serif" font-size="14" lengthAdjust="spacingAndGlyphs" textLength="45" x="20" y="155.5889">Scope</text><path d="M125,122.5938 L115,122.5938 C100,122.5938 100,150.7422 85,150.7422 L75,150.7422 " fill="none" style="stroke: #383838; stroke-width: 1.0;"/><path d="M353,122.5938 L343,122.5938 C328,122.5938 328,122.5938 313,122.5938 L303,122.5938 " fill="none" style="stroke: #383838; stroke-width: 1.0;"/><!--MD5=[558e764112d3cedd810b1aa8a0d1783e]
@startmindmap
skinparam monochrome true
* VCS
** History of change
** Version threading
** Issue tracking
** Deployment

left

** Content Management
*** Flow
*** Scope
@endmindmap

PlantUML version 1.2020.13(Sat Jun 13 12:26:38 UTC 2020)
(GPL source distribution)
Java Runtime: Java(TM) SE Runtime Environment
JVM: Java HotSpot(TM) 64-Bit Server VM
Default Encoding: UTF-8
Language: en
Country: US
--></g></svg>